<svg width="32" height="32" viewBox="0 0 32 32" fill="none" xmlns="http://www.w3.org/2000/svg">
<path fill-rule="evenodd" clip-rule="evenodd" d="M4.80005 24C4.80005 23.1163 5.51638 22.4 6.40005 22.4H16C16.8837 22.4 17.6 23.1163 17.6 24C17.6 24.8837 16.8837 25.6 16 25.6H6.40005C5.51638 25.6 4.80005 24.8837 4.80005 24ZM4.80005 8C4.80005 7.11634 5.51638 6.4 6.40005 6.4H25.6C26.4837 6.4 27.2 7.11634 27.2 8C27.2 8.88365 26.4837 9.6 25.6 9.6H6.40005C5.51638 9.6 4.80005 8.88365 4.80005 8ZM4.80005 16C4.80005 15.1164 5.51638 14.4 6.40005 14.4H25.6C26.4837 14.4 27.2 15.1164 27.2 16C27.2 16.8837 26.4837 17.6 25.6 17.6H6.40005C5.51638 17.6 4.80005 16.8837 4.80005 16Z" fill="white"/>
</svg>
