<svg width="46" height="45" viewBox="0 0 46 45" fill="none" xmlns="http://www.w3.org/2000/svg">
<path d="M43.1071 26.2269L43.094 26.2334C41.5515 27.4163 40.8979 29.4293 41.447 31.292L41.4535 31.3051C42.3292 34.2658 40.1595 37.2525 37.0745 37.331H37.0615C35.1138 37.3833 33.4015 38.625 32.7544 40.4616V40.4681C31.7217 43.383 28.2056 44.5267 25.6632 42.7685C24.0845 41.6905 21.9976 41.6343 20.3366 42.7685H20.3301C17.7878 44.5201 14.2715 43.3829 13.2454 40.4615C12.5926 38.6204 10.8827 37.3831 8.93843 37.3309H8.92534C5.84055 37.2524 3.67062 34.2657 4.54645 31.305L4.55295 31.2919C5.10183 29.4292 4.44828 27.4162 2.90597 26.2333L2.89288 26.2268C0.441958 24.3445 0.441958 20.6584 2.89288 18.7761L2.90597 18.7696C4.44828 17.5867 5.10183 15.5737 4.54645 13.711V13.6979C3.66403 10.7373 5.84046 7.75044 8.92534 7.67204H8.93843C10.8795 7.61975 12.5984 6.37794 13.2454 4.54147V4.53496C14.2715 1.62007 17.7878 0.476349 20.3301 2.23451H20.3366C21.9378 3.33903 24.0554 3.33903 25.6632 2.23451C28.2312 0.461143 31.7278 1.63756 32.7544 4.53496V4.54147C33.4015 6.37144 35.1138 7.61983 37.0615 7.67204H37.0745C40.1594 7.75044 42.3292 10.7373 41.4535 13.6979L41.447 13.711C40.8979 15.5737 41.5515 17.5867 43.094 18.7696L43.1071 18.7761C45.558 20.6584 45.558 24.3445 43.1071 26.2269Z" fill="white"/>
<path d="M23.0005 34.6743C29.7242 34.6743 35.1749 29.2237 35.1749 22.5C35.1749 15.7763 29.7242 10.3256 23.0005 10.3256C16.2768 10.3256 10.8262 15.7763 10.8262 22.5C10.8262 29.2237 16.2768 34.6743 23.0005 34.6743Z" fill="#8BD399"/>
<path opacity="0.1" d="M32.3474 14.707C30.2417 12.9747 27.5476 11.9334 24.6106 11.9334C17.887 11.9334 12.4333 17.387 12.4333 24.1107C12.4333 27.0476 13.4746 29.7417 15.2068 31.8475C12.5313 29.6157 10.8271 26.2585 10.8271 22.4998C10.8271 15.7761 16.2761 10.3272 22.9997 10.3272C26.7585 10.3272 30.1156 12.0314 32.3474 14.707Z" fill="black"/>
<path d="M20.1033 27.2659L17.4112 24.4017C16.7061 23.6515 16.7425 22.4719 17.4925 21.7669C18.2424 21.0609 19.4225 21.0988 20.127 21.8485L21.4121 23.2152L26.8748 16.9716C27.5519 16.1968 28.7296 16.1182 29.5051 16.7963C30.2799 17.4744 30.3581 18.6517 29.6804 19.4266L22.8641 27.2168C22.1379 28.0459 20.8564 28.0676 20.1033 27.2659Z" fill="white"/>
</svg>
