<svg width="24" height="24" viewBox="0 0 24 24" fill="none" xmlns="http://www.w3.org/2000/svg">
<path d="M20.8385 13.0624C20.9632 13.1966 21.0372 13.3474 21.1212 13.4949V12.0701C21.1212 11.6781 21.0637 11.2996 21.0147 10.9191C20.6702 11.2751 20.192 11.5004 19.6587 11.5004C18.606 11.5004 17.75 10.6509 17.75 9.60714V9.26814C17.75 7.94764 18.2815 6.66989 19.2465 5.67014C19.4637 5.42064 19.752 5.16064 20.0827 4.92139C20.335 4.73864 20.4447 4.46589 20.3907 4.15464C20.3435 3.87589 20.0897 3.62864 19.8007 3.57889C19.562 3.53839 19.3502 3.58939 19.18 3.73364C18.998 3.88089 18.9042 4.08314 18.9042 4.31164C18.9042 4.43489 18.887 4.55814 18.867 4.68139C18.6735 5.58039 17.896 6.20489 17.0112 6.20489C15.9585 6.20489 15.1025 5.35539 15.1025 4.31164C15.1025 4.03464 15.1325 3.76714 15.18 3.50614C14.1637 3.11889 13.0867 2.91064 11.9622 2.91064H10.1917C5.14146 2.91064 1.03271 7.01964 1.03271 12.0699V13.8399C1.03271 18.8906 5.14146 22.9996 10.1917 22.9996H11.9622C16.4082 22.9996 20.1212 19.8136 20.9467 15.6059C20.9085 15.6524 20.89 15.7121 20.8475 15.7546C20.658 15.9449 20.444 16.0861 20.2127 16.1719C20.055 16.2546 19.8037 16.3079 19.5062 16.3079C19.0065 16.3079 18.5175 16.1064 18.165 15.7546C17.8132 15.4036 17.6115 14.9144 17.6115 14.4121C17.6115 13.9109 17.8132 13.4214 18.1655 13.0704C18.878 12.3604 20.102 12.3559 20.8385 13.0624ZM6.35271 13.0939C6.35271 13.4336 6.07721 13.7094 5.73721 13.7094C5.39721 13.7094 5.12171 13.4336 5.12171 13.0939V11.6666C5.12171 11.3269 5.39721 11.0511 5.73721 11.0511C6.07721 11.0511 6.35271 11.3269 6.35271 11.6666V13.0939ZM6.88496 11.0384C6.36747 10.3199 5.10321 10.3199 4.58496 11.0384C4.46471 11.2051 4.27596 11.2939 4.08521 11.2939C3.96046 11.2939 3.83421 11.2564 3.72521 11.1774C3.44971 10.9789 3.38747 10.5941 3.58622 10.3184C4.56672 8.95939 6.90571 8.96014 7.88396 10.3184C8.08271 10.5941 8.02046 10.9791 7.74446 11.1781C7.46871 11.3764 7.08371 11.3141 6.88496 11.0384ZM11.47 18.6124H7.84171C7.50171 18.6124 7.22621 18.3366 7.22621 17.9969C7.22621 17.6571 7.50171 17.3814 7.84171 17.3814H11.47C11.8102 17.3814 12.0855 17.6571 12.0855 17.9969C12.0855 18.3366 11.81 18.6124 11.47 18.6124ZM14.1942 13.0939C14.1942 13.4336 13.9187 13.7094 13.5787 13.7094C13.2387 13.7094 12.9632 13.4336 12.9632 13.0939V11.6666C12.9632 11.3269 13.2387 11.0511 13.5787 11.0511C13.919 11.0511 14.1942 11.3269 14.1942 11.6666V13.0939ZM15.5865 8.92989C15.4775 9.00889 15.3512 9.04639 15.2265 9.04639C15.0355 9.04639 14.8472 8.95764 14.7267 8.79089C14.2087 8.07164 12.9447 8.07314 12.4267 8.79089C12.2275 9.06589 11.8427 9.12839 11.5672 8.93064C11.2915 8.73139 11.229 8.34664 11.4277 8.07089C12.406 6.71264 14.745 6.71114 15.7255 8.07089C15.9245 8.34664 15.862 8.73164 15.5865 8.92989Z" fill="#00C2B0"/>
<path d="M20.1718 14.4127C20.1718 14.5832 20.097 14.7637 19.9755 14.8854C19.912 14.9492 19.8458 14.9952 19.723 15.0439C19.6523 15.0807 19.2453 15.0927 19.035 14.8832C18.9163 14.7652 18.8425 14.5847 18.8425 14.4127C18.8425 14.2382 18.9148 14.0632 19.0353 13.9422C19.1555 13.8227 19.3338 13.7642 19.5095 13.7642C19.6805 13.7642 19.849 13.8189 19.96 13.9249C20.057 14.0292 20.1718 14.1984 20.1718 14.4127Z" fill="#00C2B0"/>
<path d="M21.5942 6.99786C21.0907 7.35261 20.7242 7.80586 20.509 8.33361C20.386 8.62061 20.321 8.94386 20.321 9.26861V9.60761C20.321 9.97286 20.0237 10.2699 19.6587 10.2699C19.2852 10.2699 18.9812 9.97311 18.9812 9.60761V9.26861C18.9812 8.26886 19.3902 7.29486 20.1535 6.50336C20.3277 6.30336 20.5532 6.10136 20.8052 5.91936C21.4392 5.46011 21.738 4.72286 21.605 3.94711C21.4697 3.15411 20.8135 2.50411 20.0167 2.36711C19.8935 2.34461 19.7695 2.33336 19.6472 2.33336C19.1845 2.33336 18.7397 2.49261 18.394 2.78661C17.936 3.15786 17.6732 3.71336 17.6732 4.31236C17.6732 4.36936 17.6612 4.42661 17.6567 4.45961C17.592 4.75811 17.3207 4.97461 17.0115 4.97461C16.638 4.97461 16.334 4.67761 16.334 4.31236C16.334 3.95986 16.386 3.62611 16.489 3.31786C16.686 2.71361 17.043 2.17536 17.512 1.76961C18.2765 1.13736 19.272 0.87661 20.246 1.05486C21.5862 1.28936 22.6842 2.38161 22.9165 3.70961C23.137 4.98486 22.6307 6.24386 21.5942 6.99786Z" fill="#00C2B0"/>
</svg>
